<svg width="176" height="20" viewBox="0 0 176 20" fill="none" xmlns="http://www.w3.org/2000/svg">
<g clip-path="url(#clip0_86_12)">
<path d="M88 1.875C92.4904 1.875 96.125 5.50895 96.125 10C96.125 14.4904 92.4911 18.125 88 18.125C83.5096 18.125 79.875 14.4911 79.875 10C79.875 5.50965 83.5089 1.875 88 1.875ZM88 0.3125C82.6497 0.3125 78.3125 4.64973 78.3125 10C78.3125 15.3503 82.6497 19.6875 88 19.6875C93.3503 19.6875 97.6875 15.3503 97.6875 10C97.6875 4.64973 93.3503 0.3125 88 0.3125ZM88 2.5C83.8579 2.5 80.5 5.85785 80.5 10C80.5 14.1421 83.8579 17.5 88 17.5C92.1421 17.5 95.5 14.1421 95.5 10C95.5 5.85785 92.1421 2.5 88 2.5ZM88 4.21875C88.7766 4.21875 89.4062 4.84836 89.4062 5.625C89.4062 6.40164 88.7766 7.03125 88 7.03125C87.2234 7.03125 86.5938 6.40164 86.5938 5.625C86.5938 4.84836 87.2234 4.21875 88 4.21875ZM92.5993 8.04777C91.4777 8.31258 90.4309 8.54574 89.3907 8.66523C89.4239 12.6114 89.8714 13.472 90.3687 14.7442C90.51 15.1059 90.3313 15.5136 89.9696 15.6549C89.6078 15.7962 89.2001 15.6175 89.0588 15.2558C88.7188 14.3844 88.3914 13.6685 88.1892 12.1875H87.8109C87.609 13.6661 87.2822 14.3831 86.9412 15.2558C86.8 15.6173 86.3924 15.7963 86.0305 15.6549C85.6688 15.5136 85.4901 15.1059 85.6314 14.7442C86.128 13.473 86.5761 12.6137 86.6094 8.66523C85.5692 8.54578 84.5224 8.31262 83.4008 8.04777C83.0648 7.96844 82.8568 7.63184 82.9361 7.29586C83.0155 6.95988 83.352 6.75187 83.688 6.83121C87.4648 7.72297 88.5429 7.72117 92.3121 6.83121C92.648 6.75191 92.9846 6.95988 93.064 7.29586C93.1432 7.63184 92.9352 7.96848 92.5993 8.04777Z" fill="#F38121"/>
</g>
<rect y="9" width="70" height="2" fill="white"/>
<rect x="106" y="9" width="70" height="2" fill="white"/>
<defs>
<clipPath id="clip0_86_12">
<rect width="20" height="20" fill="white" transform="translate(78)"/>
</clipPath>
</defs>
</svg>
